<svg width="32" height="32" viewBox="0 0 32 32" fill="none" xmlns="http://www.w3.org/2000/svg">
<rect width="32" height="32" rx="16" fill="#2154B2"/>
<path d="M23.7061 20.5332L20.0551 17.2137C19.8825 17.0568 19.6558 16.9732 19.4227 16.9804C19.1896 16.9876 18.9684 17.0851 18.8058 17.2523L16.6565 19.4626C16.1392 19.3638 15.0992 19.0396 14.0286 17.9717C12.958 16.9002 12.6338 15.8575 12.5377 15.3438L14.7462 13.1936C14.9136 13.0312 15.0113 12.81 15.0185 12.5768C15.0257 12.3436 14.9419 12.1168 14.7848 11.9443L11.4662 8.29431C11.309 8.12129 11.0907 8.01634 10.8574 8.00175C10.6241 7.98716 10.3943 8.06408 10.2169 8.21617L8.2679 9.8876C8.11262 10.0434 8.01994 10.2509 8.00744 10.4705C7.99397 10.695 7.7371 16.0138 11.8614 20.1398C15.4593 23.7368 19.9662 24 21.2074 24C21.3889 24 21.5002 23.9946 21.5299 23.9928C21.7495 23.9805 21.9568 23.8874 22.1119 23.7315L23.7824 21.7816C23.9351 21.6047 24.0126 21.3751 23.9983 21.1419C23.9841 20.9086 23.8792 20.6902 23.7061 20.5332Z" fill="#EAF1F6"/>
</svg>
