<svg width="89" height="12" viewBox="0 0 89 12" fill="none" xmlns="http://www.w3.org/2000/svg">
<path d="M6.49993 0L8.30781 4.21847L13 4.58359L9.42498 7.55586L10.5173 12L6.49993 9.61847L2.48272 12L3.57502 7.55586L0 4.58359L4.6922 4.21847L6.49993 0Z" fill="#FDC20C"/>
<path d="M25.4999 0L27.3078 4.21847L32 4.58359L28.425 7.55586L29.5173 12L25.4999 9.61847L21.4827 12L22.575 7.55586L19 4.58359L23.6922 4.21847L25.4999 0Z" fill="#FDC20C"/>
<path d="M44.4999 0L46.3078 4.21847L51 4.58359L47.425 7.55586L48.5173 12L44.4999 9.61847L40.4827 12L41.575 7.55586L38 4.58359L42.6922 4.21847L44.4999 0Z" fill="#FDC20C"/>
<path d="M63.4999 0L65.3078 4.21847L70 4.58359L66.425 7.55586L67.5173 12L63.4999 9.61847L59.4827 12L60.575 7.55586L57 4.58359L61.6922 4.21847L63.4999 0Z" fill="#FDC20C"/>
<path d="M82.4999 0L84.3078 4.21847L89 4.58359L85.425 7.55586L86.5173 12L82.4999 9.61847L78.4827 12L79.575 7.55586L76 4.58359L80.6922 4.21847L82.4999 0Z" fill="#FDC20C"/>
</svg>
